<?xml version="1.0" standalone="no"?>
<!DOCTYPE svg PUBLIC "-//W3C//DTD SVG 20010904//EN"
 "http://www.w3.org/TR/2001/REC-SVG-20010904/DTD/svg10.dtd">
<svg version="1.0" xmlns="http://www.w3.org/2000/svg"
 width="260.000000pt" height="260.000000pt" viewBox="0 0 260.000000 260.000000"
 preserveAspectRatio="xMidYMid meet">
<metadata>
Created by potrace 1.14, written by Peter Selinger 2001-2017
</metadata>
<g transform="translate(0.000000,260.000000) scale(0.100000,-0.100000)"
fill="#000000" stroke="none">
<path d="M447 2335 c-8 -8 -17 -11 -21 -8 -3 3 -12 1 -20 -6 -11 -9 -15 -9
-19 1 -4 10 -6 10 -6 1 -1 -7 -8 -13 -16 -13 -8 0 -15 -5 -15 -11 0 -5 -4 -7
-10 -4 -12 7 -53 -19 -44 -28 4 -4 -3 -4 -15 -2 -12 2 -19 1 -17 -4 3 -4 -8
-15 -25 -25 -16 -9 -27 -22 -24 -27 4 -5 -1 -9 -10 -9 -9 0 -13 -4 -10 -10 3
-5 1 -10 -4 -10 -6 0 -10 -3 -10 -7 3 -20 -2 -34 -10 -28 -6 3 -8 -4 -6 -15 2
-11 -1 -20 -6 -20 -6 0 -7 -9 -4 -21 5 -14 3 -19 -3 -15 -7 4 -8 -4 -1 -26 11
-41 11 -40 -3 -33 -7 4 -6 1 2 -7 9 -7 15 -20 15 -30 0 -9 13 -30 28 -47 15
-18 25 -37 21 -43 -4 -6 -3 -8 4 -4 6 3 17 -1 25 -9 9 -8 20 -15 26 -15 5 0
15 -8 20 -17 6 -10 11 -14 11 -10 0 4 21 -4 46 -18 25 -14 42 -20 39 -14 -4 6
1 5 13 -2 12 -7 18 -18 14 -24 -3 -5 2 -4 11 4 9 7 17 9 17 4 0 -6 11 -9 25
-8 15 2 29 -3 35 -13 5 -10 10 -12 10 -5 0 13 28 11 38 -3 4 -5 16 -9 27 -9
11 0 26 -4 33 -9 8 -5 12 -4 12 5 0 9 3 10 8 4 4 -6 14 -10 22 -10 8 1 23 -6
33 -14 16 -14 17 -13 12 5 -6 18 -6 18 9 0 8 -10 19 -15 25 -12 5 4 13 1 16
-5 4 -5 13 -8 21 -5 7 3 16 0 20 -6 5 -7 2 -8 -6 -3 -8 5 -11 4 -6 -3 4 -6 13
-9 21 -5 9 3 15 -1 15 -10 0 -8 7 -17 15 -21 8 -3 14 -11 13 -18 -2 -7 3 -12
10 -10 8 1 11 -2 7 -8 -3 -6 -10 -8 -14 -5 -5 2 -7 -6 -6 -18 2 -19 -25 -57
-40 -57 -3 0 -10 0 -16 0 -5 0 -7 -5 -3 -12 5 -8 2 -9 -9 -5 -10 3 -17 3 -17
-1 0 -4 -32 -8 -70 -9 -39 -1 -68 1 -66 5 3 5 -5 9 -16 9 -12 1 -24 7 -28 13
-4 7 -10 10 -13 8 -11 -5 -57 34 -57 48 0 8 -4 14 -9 14 -6 0 -8 9 -6 20 2 11
-1 20 -7 20 -5 0 -7 7 -4 16 3 8 2 12 -4 9 -6 -3 -10 -2 -10 3 0 5 -20 9 -45
8 -25 0 -45 -4 -45 -9 0 -4 -5 -5 -11 -2 -5 4 -21 8 -35 10 -19 2 -24 -1 -19
-13 4 -12 2 -12 -8 -4 -8 7 -17 9 -20 5 -4 -3 -7 0 -7 8 0 10 -3 10 -8 3 -11
-18 -47 -21 -66 -5 -14 12 -16 12 -11 0 4 -10 -4 -14 -31 -14 -31 0 -37 -4
-41 -24 -2 -13 2 -30 8 -37 9 -11 8 -14 -2 -14 -8 0 -6 -5 6 -13 10 -8 15 -19
11 -25 -4 -7 -2 -12 3 -12 6 0 11 -7 11 -16 0 -8 4 -12 10 -9 5 3 7 0 4 -8 -3
-8 2 -17 10 -20 9 -4 16 -13 16 -21 0 -7 12 -22 27 -31 16 -10 32 -24 36 -32
4 -7 15 -13 22 -13 8 0 15 -5 15 -11 0 -5 4 -7 10 -4 5 3 10 1 10 -5 0 -7 7
-10 15 -6 8 3 15 1 15 -4 0 -6 3 -9 8 -9 19 3 43 -2 39 -8 -3 -5 18 -9 45 -10
28 -1 54 -7 59 -14 4 -7 26 -14 49 -16 24 -2 39 1 36 6 -4 5 -2 13 4 16 6 4 9
1 8 -6 -5 -21 210 -20 230 1 14 13 15 13 10 -1 -5 -13 0 -16 22 -15 19 0 26 4
20 11 -6 7 -1 11 13 11 12 0 25 -5 30 -10 5 -8 11 -6 20 4 6 9 20 16 30 17 42
2 48 3 43 11 -2 4 4 9 15 10 42 4 48 6 43 14 -3 4 -1 8 5 8 6 0 24 13 40 29
31 30 86 111 75 111 -4 0 -1 6 5 13 6 8 8 17 4 20 -3 4 -1 7 7 7 10 0 10 4 -1
17 -12 14 -12 16 0 8 11 -6 13 -4 8 8 -3 10 -3 17 1 17 4 0 7 18 7 40 0 22 -4
40 -10 40 -5 0 -3 5 5 10 10 6 11 10 3 10 -7 0 -13 5 -13 11 0 5 6 7 13 4 6
-4 4 0 -5 8 -10 8 -18 19 -18 26 0 6 -5 11 -11 11 -8 0 -7 6 2 17 10 11 10 14
2 9 -8 -4 -13 -2 -13 4 0 6 -5 8 -12 4 -6 -4 -8 -3 -5 3 8 12 -46 66 -56 56
-4 -3 -7 -1 -7 6 0 7 -13 17 -30 22 -16 6 -30 15 -30 21 0 5 -4 6 -10 3 -5 -3
-10 -2 -10 4 0 5 -11 8 -25 7 -13 -2 -24 0 -23 3 2 18 -4 22 -17 11 -10 -9
-15 -9 -15 -1 0 6 -8 11 -17 11 -10 0 -26 7 -36 15 -11 7 -25 11 -33 8 -8 -3
-22 1 -31 8 -10 8 -14 9 -10 2 5 -8 0 -11 -13 -10 -11 1 -20 5 -20 10 0 4 -4
5 -10 2 -5 -3 -10 0 -10 7 0 9 -3 9 -10 -2 -6 -10 -10 -11 -10 -2 0 6 -5 12
-11 12 -5 0 -7 -6 -4 -12 4 -7 0 -5 -8 4 -8 10 -17 15 -20 11 -4 -3 -13 0 -22
7 -12 10 -15 10 -15 0 0 -9 -3 -10 -13 -1 -8 6 -17 8 -20 4 -4 -3 -7 -1 -7 7
0 9 -3 10 -14 1 -9 -8 -15 -8 -18 -2 -1 6 -13 12 -25 14 -29 4 -53 26 -46 43
3 8 0 14 -6 14 -18 0 42 58 64 62 11 1 26 10 33 18 8 8 11 10 8 4 -3 -7 1 -14
9 -18 8 -3 15 0 15 6 0 7 4 7 13 1 14 -11 27 -11 43 -1 6 4 21 -2 32 -13 12
-11 22 -15 22 -9 0 6 11 0 25 -14 14 -14 25 -30 25 -36 0 -5 5 -10 11 -10 5 0
8 -4 5 -9 -16 -25 78 -49 111 -28 6 4 14 3 17 -2 7 -10 25 -9 41 1 6 4 17 3
25 -2 10 -6 21 -4 32 7 16 14 18 14 24 -1 6 -15 8 -15 21 1 8 10 12 13 9 7 -8
-15 21 -26 30 -12 5 7 2 8 -6 3 -9 -6 -11 -4 -6 4 6 9 13 8 29 -6 11 -10 17
-12 13 -5 -4 7 -2 12 4 12 7 0 10 7 7 14 -4 11 -1 13 11 9 14 -6 15 -4 5 9 -7
8 -10 18 -6 21 3 4 1 7 -5 7 -7 0 -11 3 -11 8 4 23 -2 42 -12 36 -8 -4 -9 1
-4 16 4 12 3 20 -1 17 -5 -3 -15 1 -22 9 -7 8 -10 14 -7 14 4 0 -7 14 -23 30
-17 17 -35 30 -41 30 -6 0 -11 5 -11 11 0 5 -4 7 -10 4 -5 -3 -10 -1 -10 5 0
7 -7 10 -15 6 -8 -3 -15 -1 -15 4 0 6 -12 10 -26 10 -16 0 -23 4 -18 12 4 7 3
8 -5 4 -6 -4 -25 -1 -41 8 -21 10 -32 11 -36 4 -5 -7 -2 -8 6 -3 9 6 11 4 6
-4 -6 -9 -12 -9 -24 3 -25 22 -336 20 -372 -3 -23 -15 -24 -15 -11 2 16 21 8
23 -12 2z m66 -1010 c-3 -9 -8 -14 -10 -11 -3 3 -2 9 2 15 9 16 15 13 8 -4z
m31 -3 c3 -5 -1 -9 -9 -9 -8 0 -12 4 -9 9 3 4 7 8 9 8 2 0 6 -4 9 -8z"/>
<path d="M1336 2268 c3 -4 2 -8 -3 -8 -4 0 -8 -214 -8 -475 0 -468 0 -476 20
-480 11 -2 70 -3 132 -3 102 1 111 3 108 20 -2 10 2 18 8 18 8 0 8 3 2 8 -6 4
-10 72 -10 167 0 95 4 163 10 167 6 5 5 8 -2 8 -7 0 -13 5 -13 11 0 5 6 7 13
3 8 -5 8 -2 -2 9 -11 14 -11 17 0 17 10 0 10 3 1 12 -16 16 -15 31 1 22 9 -6
9 -5 0 7 -10 12 -10 18 -1 27 8 8 9 12 1 12 -6 0 -9 9 -5 22 4 16 2 19 -9 13
-8 -5 -3 5 11 21 14 15 17 22 8 15 -12 -9 -18 -10 -18 -2 0 6 5 11 11 11 5 0
7 6 3 13 -5 8 -3 8 9 -2 9 -7 14 -17 11 -22 -3 -5 0 -9 7 -9 8 0 8 -4 -1 -15
-8 -10 -9 -15 -2 -15 7 0 9 -7 5 -17 -4 -10 -2 -14 4 -10 6 4 13 -2 16 -13 3
-13 1 -18 -6 -13 -7 4 -5 -1 3 -12 8 -10 14 -20 13 -22 -8 -10 -1 -43 7 -38 5
3 7 0 4 -8 -3 -8 -1 -18 5 -21 6 -4 8 -13 4 -21 -3 -8 -1 -15 5 -15 6 0 8 -10
4 -22 -3 -13 -1 -19 5 -15 6 4 9 -6 8 -24 -1 -16 3 -33 8 -36 6 -4 7 -1 2 7
-5 8 -4 11 3 7 5 -4 8 -17 4 -29 -3 -15 -2 -19 7 -14 14 9 11 -16 -4 -26 -6
-5 -3 -8 7 -8 11 0 16 -6 13 -20 -2 -11 0 -20 5 -20 4 0 7 -8 5 -17 -1 -10 4
-25 12 -34 7 -9 13 -20 11 -25 -1 -5 4 -20 12 -34 7 -14 13 -27 12 -30 -5 -12
141 -10 156 2 13 11 14 11 8 0 -8 -13 -3 -14 72 -2 1 0 2 5 2 11 0 5 -6 7 -12
4 -7 -4 -5 0 4 8 10 8 15 17 11 20 -3 4 0 14 8 24 9 11 10 14 2 9 -9 -5 -11
-2 -7 8 3 9 14 16 23 17 10 0 11 2 3 6 -6 2 -9 10 -5 16 7 11 9 18 16 52 2 8
6 18 10 21 4 4 7 18 7 30 0 13 5 26 10 29 6 3 10 15 10 26 0 11 4 18 9 15 4
-3 7 6 5 19 -1 14 1 25 6 25 4 0 11 7 14 16 6 15 4 15 -11 3 -17 -13 -17 -13
-1 7 10 11 16 30 13 42 -2 13 0 20 6 17 12 -8 18 9 22 60 2 30 7 40 19 39 11
-1 14 4 11 14 -4 9 -2 13 4 9 6 -4 13 -1 16 5 2 7 3 -1 2 -18 -1 -17 -5 -36
-9 -42 -4 -7 -1 -12 6 -12 10 0 9 -3 -1 -9 -12 -8 -12 -12 -2 -24 9 -12 9 -17
0 -23 -8 -5 -10 -3 -4 7 5 8 4 10 0 6 -16 -14 -14 -37 3 -38 11 0 12 -2 5 -6
-7 -2 -13 -18 -13 -34 0 -18 4 -28 10 -24 6 3 10 2 10 -4 0 -5 -5 -11 -12 -13
-6 -2 -12 -12 -14 -21 -1 -9 1 -15 6 -12 4 3 11 -2 14 -11 3 -8 2 -13 -3 -10
-5 3 -11 -3 -14 -14 -3 -13 -1 -18 6 -13 6 4 8 0 4 -10 -4 -10 -1 -17 6 -17 8
0 7 -3 -2 -9 -8 -5 -16 -17 -17 -25 -1 -9 1 -14 6 -11 4 3 11 -2 14 -11 3 -9
2 -12 -5 -8 -13 8 -9 -45 5 -64 7 -9 4 -11 -10 -5 -17 6 -17 5 -5 -10 11 -14
12 -23 2 -44 -11 -24 -10 -25 4 -13 13 11 15 10 10 -2 -5 -12 14 -14 120 -15
69 0 122 3 119 8 -3 5 -2 9 3 9 10 0 9 103 -1 119 -4 6 0 11 11 11 11 0 14 3
7 8 -6 4 -11 21 -10 37 1 17 -3 36 -9 44 -8 12 -6 13 9 8 16 -6 17 -5 6 8 -7
9 -10 18 -7 22 4 3 2 12 -4 20 -9 10 -7 13 7 13 12 0 15 3 8 8 -6 4 -11 21
-10 37 1 17 -3 36 -9 44 -8 12 -6 13 9 8 16 -6 17 -5 6 8 -7 9 -10 18 -7 22 4
3 2 12 -4 20 -9 10 -7 13 7 13 12 0 15 3 8 8 -6 4 -11 21 -10 37 1 17 -3 36
-9 44 -8 12 -6 13 9 8 16 -6 17 -5 6 8 -7 9 -10 18 -7 22 4 3 2 12 -4 20 -9
10 -7 13 7 13 12 0 15 3 8 8 -6 4 -11 21 -10 37 1 17 -3 36 -9 44 -8 12 -6 13
9 8 16 -6 17 -5 6 8 -7 9 -10 18 -7 22 4 3 2 12 -4 20 -9 10 -7 13 7 13 12 0
15 3 8 8 -6 4 -11 21 -10 37 1 17 -3 36 -9 44 -8 12 -6 13 9 8 15 -6 16 -5 8
6 -6 7 -9 25 -8 40 2 15 -3 32 -12 39 -13 11 -14 11 -7 -1 6 -10 4 -12 -5 -6
-16 10 -80 13 -80 3 0 -4 -13 -3 -30 2 -16 5 -30 6 -30 2 0 -4 -52 -5 -115 -2
-63 3 -115 2 -115 -2 0 -4 -6 -5 -12 -3 -7 3 -18 -6 -25 -20 -8 -19 -8 -23 0
-18 7 4 5 -1 -3 -12 -8 -10 -14 -26 -12 -37 2 -10 -3 -18 -10 -18 -11 0 -11
-2 0 -9 11 -7 11 -11 0 -22 -14 -16 -21 -34 -22 -62 0 -11 -6 -15 -15 -12 -11
4 -12 3 -1 -10 10 -12 9 -16 -5 -21 -10 -4 -13 -9 -6 -13 7 -5 6 -16 -4 -35
-8 -15 -16 -37 -17 -49 -2 -12 -7 -28 -11 -34 -5 -7 -6 -17 -3 -21 2 -4 1 -14
-4 -22 -5 -8 -5 -19 0 -25 5 -6 3 -18 -5 -28 -8 -12 -15 -14 -20 -7 -3 5 -10
8 -14 5 -5 -2 -7 8 -5 22 1 15 0 32 -4 38 -3 5 -7 16 -9 24 -1 8 -5 17 -10 20
-5 3 -8 18 -8 33 1 15 -3 25 -7 22 -9 -6 -21 39 -22 83 -1 17 -4 29 -8 26 -5
-2 -8 1 -8 7 0 6 -5 8 -12 4 -9 -5 -9 -2 1 9 9 12 10 17 2 17 -7 0 -11 6 -10
13 3 26 -1 38 -12 31 -8 -4 -8 -1 -1 12 7 14 6 25 -4 38 -7 10 -11 23 -8 27 3
5 0 9 -6 9 -6 0 -9 4 -5 9 3 5 -5 17 -17 25 -17 12 -24 13 -30 3 -4 -6 -8 -7
-8 -2 0 6 -32 10 -75 10 -41 0 -75 -3 -75 -7 0 -4 -13 -3 -30 2 -16 5 -30 5
-30 1 0 -4 -20 -5 -45 -1 -25 4 -45 3 -45 -2 0 -5 -5 -6 -12 -2 -16 10 -58 12
-52 2z"/>
<path d="M510 2066 c0 -2 8 -10 18 -17 15 -13 16 -12 3 4 -13 16 -21 21 -21
13z"/>
<path d="M2110 1241 c-10 -12 -12 -12 -5 -2 6 11 2 9 -13 -3 -17 -15 -19 -22
-10 -28 10 -6 9 -8 -2 -8 -12 0 -12 -2 -1 -9 9 -6 10 -10 2 -16 -9 -5 -9 -10
-1 -20 8 -10 7 -14 -2 -18 -10 -4 -10 -6 0 -6 6 -1 12 -6 12 -12 0 -5 -5 -7
-11 -3 -6 3 -3 -5 6 -20 17 -25 17 -26 0 -19 -14 5 -16 3 -10 -8 4 -8 5 -11 0
-7 -4 4 -14 3 -22 -3 -10 -9 -13 -8 -13 1 0 9 -4 9 -13 2 -8 -7 -18 -7 -27 -2
-9 5 -19 5 -27 -2 -9 -7 -13 -7 -13 1 0 9 -5 9 -20 1 -11 -6 -24 -9 -29 -6
-13 8 -21 -33 -12 -58 5 -11 6 -27 4 -33 -3 -7 2 -13 11 -13 9 0 16 -6 16 -12
0 -10 2 -10 8 -1 5 8 24 11 50 9 27 -3 40 0 36 6 -4 6 1 6 13 -1 11 -6 23 -7
27 -4 3 3 6 1 6 -6 0 -7 4 -10 8 -7 4 2 9 -4 9 -15 1 -10 -4 -19 -10 -19 -8 0
-7 -4 2 -9 13 -8 13 -12 0 -27 -8 -10 -9 -15 -3 -11 7 4 14 -2 17 -13 3 -11 1
-18 -3 -15 -5 3 -11 1 -15 -5 -3 -5 -1 -10 6 -10 8 0 7 -5 -2 -17 -10 -11 -10
-14 -1 -9 6 4 12 2 12 -3 0 -6 -6 -11 -12 -11 -7 -1 -2 -10 11 -21 19 -15 26
-17 32 -7 6 9 9 9 9 1 0 -12 17 -12 37 0 7 4 16 0 22 -10 9 -16 10 -16 11 -1
0 11 6 16 18 13 15 -3 17 4 16 48 0 29 3 57 8 63 5 7 2 17 -9 25 -11 9 -14 10
-9 2 4 -8 2 -13 -4 -13 -7 0 -9 7 -6 16 3 9 6 18 6 20 0 3 4 3 9 0 5 -4 8 2 6
11 -2 10 -4 22 -4 26 -1 5 -5 6 -9 3 -11 -6 -9 31 2 41 4 5 6 2 4 -6 -2 -7 4
-16 12 -18 12 -4 12 -3 2 5 -8 5 -13 12 -13 16 3 20 0 26 -9 21 -6 -3 -7 1 -4
9 3 9 10 14 14 11 5 -3 7 3 5 12 -2 10 -4 22 -4 26 -1 5 -5 6 -9 3 -11 -7 -8
31 3 41 4 5 5 3 1 -4 -3 -6 -2 -14 3 -17 5 -4 8 2 6 11 -2 10 -4 22 -4 26 -1
5 -5 5 -11 2 -6 -3 -7 1 -4 9 3 9 9 14 13 12 4 -3 6 14 6 36 -1 33 -6 43 -28
54 -21 12 -27 12 -27 2 0 -9 -3 -8 -10 2 -9 13 -10 13 -10 0 0 -13 -1 -13 -10
0 -9 13 -10 13 -11 0 0 -12 -2 -12 -7 1 -6 15 -8 15 -22 0z m116 -36 c-1 -8
-5 -17 -8 -21 -5 -4 -4 16 1 34 3 9 9 -1 7 -13z m-312 -191 c3 -8 2 -12 -4 -9
-6 3 -10 10 -10 16 0 14 7 11 14 -7z m317 -158 c-6 -7 -9 -21 -5 -30 3 -9 2
-16 -3 -16 -13 0 -13 32 0 48 5 6 12 12 14 12 3 0 0 -6 -6 -14z"/>
<path d="M1121 1236 c-6 -7 -8 -16 -4 -20 10 -10 12 -56 1 -50 -4 3 -8 0 -8
-5 0 -6 6 -11 13 -11 9 0 8 -3 -2 -9 -11 -7 -11 -9 0 -14 12 -5 12 -6 0 -6
-11 -1 -11 -4 0 -18 12 -15 12 -16 -3 -10 -22 8 -23 3 -2 -17 12 -12 12 -16 2
-16 -10 0 -9 -3 2 -10 12 -8 12 -10 1 -10 -11 0 -11 -3 0 -17 12 -15 12 -16
-6 -9 -15 5 -17 4 -8 -5 6 -6 9 -18 6 -27 -4 -8 -2 -13 3 -9 12 7 11 -40 -1
-50 -4 -5 -5 -2 -1 5 9 14 -10 17 -19 2 -4 -6 -11 -7 -17 -4 -5 3 -31 7 -56 9
-47 3 -77 -9 -66 -26 3 -5 1 -9 -3 -9 -5 0 -9 -9 -10 -20 -1 -12 3 -18 9 -14
6 4 6 -2 -1 -15 -8 -15 -9 -21 -1 -21 6 0 9 -4 6 -9 -3 -5 4 -11 17 -15 12 -3
23 -2 25 3 2 5 19 5 38 1 26 -6 32 -5 25 4 -7 8 -5 12 9 12 10 0 16 -4 14 -8
-3 -4 4 -8 15 -8 15 0 19 -4 14 -17 -4 -10 -2 -14 4 -10 5 3 10 0 10 -8 0 -8
-4 -12 -9 -9 -4 3 -8 0 -8 -5 0 -6 6 -11 13 -11 8 0 7 -4 -3 -10 -8 -5 -11
-10 -6 -10 5 0 3 -7 -4 -15 -11 -13 -10 -14 2 -10 9 4 15 0 15 -9 0 -8 -4 -13
-9 -10 -4 3 -8 0 -8 -5 0 -6 6 -11 13 -11 9 0 8 -3 -2 -9 -11 -7 -11 -9 0 -14
12 -5 12 -6 0 -6 -11 -1 -11 -4 0 -18 12 -15 12 -16 -3 -10 -12 4 -15 2 -11
-8 3 -8 10 -12 17 -8 6 4 5 -1 -3 -10 -11 -14 -11 -17 0 -17 11 0 11 -2 -1
-10 -11 -7 -11 -10 -2 -10 7 0 10 -5 7 -10 -4 -6 -12 -7 -18 -3 -8 5 -8 2 0
-9 7 -8 9 -19 5 -23 -4 -5 -1 -5 6 -1 8 5 12 0 13 -16 0 -22 1 -22 9 -3 5 11
9 14 9 7 1 -8 6 -10 13 -6 7 4 28 7 48 6 19 -1 42 3 50 9 12 9 12 10 -4 5 -19
-7 -19 -6 -2 13 12 14 14 21 6 26 -9 6 -9 10 1 16 12 7 12 9 0 9 -11 0 -11 3
0 17 10 11 10 14 2 9 -7 -4 -13 -3 -13 1 0 5 6 15 13 22 10 11 9 12 -2 6 -10
-6 -12 -4 -5 6 14 23 14 42 0 30 -10 -8 -11 -3 -8 20 3 22 7 27 13 18 6 -10 9
-10 9 -2 0 6 -5 15 -10 18 -8 5 -7 12 2 23 11 13 11 14 -1 7 -11 -6 -12 -5 -5
6 14 23 14 42 0 30 -10 -8 -11 -3 -8 20 3 22 7 27 13 18 6 -10 9 -10 9 -2 0 6
-5 15 -10 18 -8 5 -7 12 2 23 11 13 11 14 -1 7 -11 -6 -12 -5 -5 6 14 23 14
42 0 30 -10 -8 -11 -3 -8 20 3 22 7 27 13 18 6 -10 9 -10 9 -2 0 6 -5 15 -10
18 -8 5 -7 12 2 23 11 13 11 14 -1 7 -11 -6 -12 -5 -5 6 14 23 14 42 0 30 -10
-8 -11 -3 -8 20 3 22 7 27 13 18 6 -10 9 -10 9 -2 0 6 -5 15 -10 18 -8 5 -7
12 2 23 11 13 11 14 -1 7 -11 -6 -12 -5 -5 6 14 23 14 42 0 30 -10 -8 -11 -3
-8 20 3 22 7 27 13 18 6 -10 9 -10 9 -2 0 6 -5 15 -10 18 -6 4 -7 13 -1 24 9
15 6 17 -19 16 -16 -1 -27 2 -24 7 3 4 1 8 -5 8 -5 0 -12 -4 -15 -8 -6 -10
-36 -9 -53 1 -6 4 -16 1 -22 -7z m-71 -316 c0 -5 -2 -10 -4 -10 -3 0 -8 5 -11
10 -3 6 -1 10 4 10 6 0 11 -4 11 -10z"/>
<path d="M1665 1220 c-4 -6 -10 -8 -15 -5 -5 3 -12 0 -16 -6 -4 -7 -3 -9 4 -5
14 8 11 -66 -3 -76 -6 -5 -6 -8 2 -8 6 0 9 -9 6 -20 -3 -11 -9 -20 -15 -20 -5
0 -4 -9 2 -20 8 -15 8 -20 -1 -18 -6 2 -13 -5 -14 -14 -6 -32 -91 -138 -111
-138 -4 0 -15 -9 -25 -21 -10 -12 -23 -18 -30 -13 -7 4 -9 3 -6 -3 7 -11 -47
-36 -56 -27 -2 3 -3 -6 -2 -18 4 -37 4 -38 16 -38 7 0 26 -15 44 -33 24 -25
34 -30 43 -21 6 7 8 16 4 20 -4 5 0 3 10 -4 12 -10 18 -10 24 -1 5 8 3 10 -7
4 -8 -4 -1 4 16 18 16 13 36 22 44 19 9 -3 12 -1 7 6 -4 7 -4 12 1 12 14 0 73
57 73 71 0 11 2 11 10 -1 8 -13 10 -12 11 5 1 11 1 23 0 28 0 4 8 7 20 7 13 0
18 4 14 13 -4 6 0 4 8 -5 8 -10 16 -16 18 -13 3 2 11 -6 18 -18 14 -21 13 -21
-5 -7 -18 14 -18 14 -5 -2 7 -10 20 -18 27 -18 8 0 19 -9 26 -20 7 -11 21 -20
30 -20 10 0 18 -7 18 -15 0 -8 12 -18 27 -21 15 -4 33 -13 40 -20 7 -7 19 -11
26 -10 17 2 77 63 77 77 0 6 4 8 8 5 5 -3 9 1 9 9 0 8 -4 12 -9 9 -4 -3 -8 -1
-8 5 0 6 -7 8 -15 5 -8 -4 -15 -1 -15 6 0 6 -3 9 -7 7 -11 -7 -74 29 -66 37 3
3 -1 6 -10 6 -9 0 -17 5 -17 11 0 5 -4 7 -10 4 -5 -3 -10 -1 -10 5 0 15 -25
40 -40 40 -6 0 -9 4 -6 9 3 5 -1 12 -10 15 -8 3 -13 9 -11 13 6 10 -19 34 -26
26 -3 -3 -5 11 -4 31 1 20 6 36 11 36 5 0 2 8 -5 17 -12 14 -12 16 0 8 11 -6
13 -4 8 8 -4 10 -2 17 5 17 7 0 7 4 -1 14 -8 10 -9 15 -1 18 6 2 8 11 5 21 -4
9 -11 14 -16 11 -5 -3 -9 -1 -9 5 0 10 -25 9 -36 -2 -4 -4 -14 -1 -22 6 -13 9
-14 9 -8 0 4 -7 2 -13 -3 -13 -6 0 -11 5 -11 10 0 13 -17 13 -25 0z"/>
<path d="M905 1189 c3 -4 -3 -10 -12 -13 -9 -4 -20 -2 -23 5 -6 8 -13 8 -28 0
-14 -8 -23 -8 -27 -1 -5 8 -12 7 -22 -1 -11 -10 -16 -10 -22 0 -7 10 -13 10
-29 2 -14 -7 -23 -8 -27 -1 -3 5 -11 10 -16 10 -6 0 -8 -4 -5 -8 3 -5 -1 -9
-9 -9 -8 0 -15 3 -15 7 0 8 -83 5 -98 -4 -7 -4 -12 -3 -12 2 0 5 -7 9 -15 9
-8 0 -15 -4 -15 -8 0 -4 -7 -9 -14 -12 -11 -4 -13 -1 -9 11 3 9 2 13 -2 9 -12
-10 -15 -68 -4 -61 5 3 6 10 3 16 -5 7 -2 8 5 4 9 -6 9 -12 -3 -25 -13 -14
-13 -20 -3 -31 9 -10 9 -11 0 -6 -7 4 -13 3 -13 -2 0 -12 29 -24 41 -16 5 3 9
0 9 -6 0 -8 6 -8 20 0 14 8 20 8 20 0 0 -6 5 -8 12 -4 16 10 68 11 68 1 0 -5
5 -5 11 -2 15 10 119 11 119 2 0 -5 5 -5 10 -2 6 4 10 -5 10 -19 0 -14 -4 -26
-9 -26 -6 0 -8 -9 -6 -20 2 -11 0 -20 -6 -20 -5 0 -9 -5 -9 -11 0 -5 6 -7 13
-3 8 5 8 3 -2 -9 -7 -9 -17 -14 -22 -11 -5 3 -9 2 -8 -3 3 -17 -14 -53 -22
-47 -5 3 -9 0 -9 -7 0 -13 -67 -79 -80 -79 -5 0 -14 -8 -19 -17 -6 -10 -11
-14 -11 -9 0 6 -7 1 -16 -10 -8 -10 -13 -12 -9 -4 4 10 2 9 -8 -2 -8 -10 -17
-14 -21 -10 -4 4 -12 -1 -17 -10 -5 -10 -25 -20 -44 -24 -19 -3 -36 -9 -36
-13 -7 -31 -3 -64 8 -68 7 -3 11 -8 10 -12 -2 -3 4 -14 15 -23 12 -12 18 -14
18 -5 0 9 2 9 8 -1 6 -9 14 -7 31 9 12 11 29 18 37 15 8 -3 17 1 20 9 4 8 10
12 15 9 5 -3 9 0 9 7 0 7 3 9 7 6 3 -4 12 1 20 11 9 11 12 11 7 2 -4 -9 1 -7
14 5 38 36 56 50 67 50 5 1 9 6 7 13 -1 7 2 12 8 12 13 0 50 37 43 43 -2 3 5
8 16 12 12 3 19 11 16 16 -4 5 -1 9 5 9 6 0 9 4 6 9 -3 5 5 17 18 26 14 10 23
26 21 36 -2 10 3 20 11 23 9 3 13 10 9 16 -3 5 3 18 14 29 14 14 16 22 7 31
-8 10 -8 11 0 7 15 -9 25 18 12 31 -6 6 -5 14 5 23 8 7 12 22 9 33 -3 13 -1
17 6 12 19 -11 14 5 -5 20 -16 12 -16 13 5 9 17 -3 21 -1 15 8 -5 7 -8 22 -7
34 1 20 -2 22 -28 18 -16 -3 -27 -2 -24 3 3 5 -1 9 -9 9 -8 0 -12 -4 -10 -8z"/>
<path d="M1606 703 c-4 -5 -12 -8 -17 -8 -5 0 -9 -4 -10 -10 0 -5 -5 -16 -11
-22 -6 -7 -6 -13 -1 -13 5 0 8 -13 7 -29 -1 -15 1 -32 5 -37 9 -13 41 -14 41
0 0 6 5 4 10 -4 6 -9 13 -11 18 -5 10 14 35 18 27 5 -9 -14 27 -9 37 4 4 6 12
5 20 -2 11 -9 17 -9 26 0 9 9 12 9 12 0 0 -10 5 -10 20 -2 11 6 20 7 20 2 0
-11 53 -10 61 2 4 5 13 5 20 0 17 -10 51 -10 67 0 6 4 12 2 12 -3 0 -6 5 -11
11 -11 5 0 8 4 5 9 -4 5 2 8 11 6 10 -1 17 -8 15 -16 -3 -10 0 -10 12 0 8 7
21 9 27 5 8 -4 9 -3 5 4 -12 20 6 13 25 -10 21 -23 23 -29 12 -27 -21 3 -33
-2 -27 -12 4 -8 0 -8 -15 0 -12 7 -21 8 -21 2 0 -6 -11 -6 -30 -1 -21 6 -30 5
-30 -3 0 -7 -4 -6 -10 3 -7 11 -10 11 -10 2 0 -10 -5 -10 -20 -2 -12 6 -20 7
-20 1 0 -6 -11 -6 -30 -1 -20 6 -30 5 -30 -2 0 -6 -6 -6 -15 2 -12 10 -15 10
-15 -1 0 -11 -2 -11 -10 1 -8 12 -10 12 -10 1 0 -11 -3 -11 -15 -1 -11 9 -15
9 -15 1 0 -9 -5 -9 -20 -1 -14 8 -20 8 -20 0 0 -8 -6 -8 -20 0 -11 6 -20 7
-20 2 0 -5 -18 -6 -40 -2 -22 4 -40 4 -40 -1 0 -4 -9 -6 -19 -4 -18 3 -20 -2
-19 -54 1 -31 -2 -63 -6 -69 -4 -7 -4 -12 1 -12 12 0 11 -80 -2 -80 -5 0 -3
-5 5 -10 8 -5 10 -10 3 -10 -6 0 -9 -9 -6 -20 5 -19 14 -20 339 -20 215 0 334
4 335 10 2 14 1 76 0 98 -1 13 -3 14 -10 4 -11 -17 -21 -17 -32 0 -5 7 -9 8
-9 2 0 -6 -7 -11 -15 -11 -8 0 -15 5 -15 11 0 7 -3 7 -8 1 -10 -14 -52 -15
-52 -1 0 6 -5 4 -10 -4 -9 -13 -10 -13 -10 0 0 12 -2 12 -9 2 -11 -17 -21 -17
-32 0 -5 7 -9 8 -9 2 0 -6 -7 -11 -15 -11 -8 0 -15 5 -15 11 0 7 -3 8 -8 1 -9
-14 -45 -14 -54 0 -5 6 -8 6 -8 -2 0 -14 -40 -13 -40 2 0 5 -5 3 -10 -5 -9
-13 -10 -13 -10 0 0 9 -3 11 -8 5 -10 -14 -52 -15 -52 -1 0 6 -4 6 -9 -2 -4
-8 -12 -14 -16 -14 -4 0 -12 6 -16 14 -7 11 -9 11 -9 -1 0 -11 -3 -11 -17 0
-15 12 -16 12 -8 -1 8 -13 7 -13 -8 -1 -20 16 -22 47 -4 53 6 3 31 3 55 2 31
-3 41 -1 36 8 -5 7 -3 8 7 2 21 -12 200 -14 192 -1 -4 6 -1 7 8 1 22 -14 160
-14 152 0 -3 6 3 3 14 -7 19 -17 21 -17 34 0 12 16 12 17 -1 8 -9 -5 -7 -2 3
8 17 15 17 17 3 17 -10 0 -14 5 -11 10 4 6 11 8 16 5 5 -3 6 1 3 9 -3 9 -10
13 -15 10 -5 -3 -6 2 -3 10 3 9 10 14 14 11 5 -3 7 3 5 12 -2 10 -4 22 -4 26
-1 5 -5 6 -9 3 -11 -7 -8 31 3 41 4 5 5 3 1 -4 -3 -6 -2 -14 3 -17 5 -4 8 2 6
11 -2 10 -4 22 -4 26 -1 5 -5 5 -11 2 -6 -3 -7 1 -4 9 3 9 9 14 13 11 10 -5 7
52 -2 62 -11 11 -49 14 -42 4 3 -6 -4 -8 -16 -6 -13 3 -26 10 -31 17 -6 10 -8
9 -8 -3 0 -12 -8 -14 -31 -11 -22 3 -27 7 -18 13 8 5 9 9 3 9 -5 0 -15 -5 -22
-12 -9 -9 -12 -9 -12 2 0 11 -3 11 -12 2 -14 -14 -32 -16 -24 -4 3 5 -1 9 -9
9 -8 0 -15 -3 -15 -7 0 -3 -9 -6 -20 -7 -13 -1 -18 2 -14 9 5 7 2 8 -7 3 -22
-14 -60 -15 -53 -2 5 8 3 8 -7 0 -15 -15 -33 -17 -25 -4 9 13 -19 7 -38 -8
-14 -12 -16 -11 -10 5 6 16 5 17 -7 7 -15 -15 -33 -17 -25 -4 9 13 -19 7 -38
-8 -14 -12 -16 -11 -10 5 6 16 5 17 -7 7 -15 -15 -33 -18 -25 -5 3 5 -1 9 -9
9 -8 0 -12 -4 -9 -9 3 -4 -2 -8 -11 -8 -9 0 -14 4 -11 8 3 5 -1 9 -9 9 -8 0
-12 -4 -9 -9 3 -4 0 -8 -5 -8 -6 0 -11 5 -11 10 0 12 -13 13 -24 3z m619 -23
c3 -5 1 -10 -4 -10 -6 0 -11 5 -11 10 0 6 2 10 4 10 3 0 8 -4 11 -10z"/>
<path d="M609 554 c-9 -12 -10 -15 -1 -10 6 4 12 2 12 -3 0 -6 -6 -11 -12 -11
-9 0 -8 -4 2 -10 13 -8 13 -10 1 -10 -12 0 -12 -3 -3 -12 15 -15 16 -32 1 -22
-8 5 -8 1 0 -14 6 -11 11 -23 11 -27 0 -3 -5 -3 -11 1 -8 4 -8 0 0 -15 9 -16
9 -21 -1 -21 -8 -1 -5 -7 6 -15 20 -15 20 -15 0 -15 -16 0 -17 -2 -4 -10 12
-8 12 -10 1 -10 -11 0 -11 -3 0 -16 10 -13 10 -17 0 -24 -11 -6 -11 -9 0 -13
11 -4 11 -6 1 -6 -10 -1 -10 -6 -2 -21 11 -20 19 -20 338 -18 304 3 327 4 326
21 -1 9 2 17 7 17 6 0 5 9 -1 20 -7 14 -7 20 0 20 25 0 -17 39 -46 42 -18 2
-30 0 -28 -4 7 -10 -10 -10 -20 0 -10 9 -66 9 -60 0 3 -4 -4 -6 -15 -5 -16 1
-18 4 -8 16 10 12 9 13 -11 2 -13 -7 -30 -10 -38 -7 -8 3 -12 2 -9 -4 3 -5 -3
-8 -14 -7 -16 1 -18 4 -8 16 10 12 9 13 -11 2 -13 -7 -30 -10 -38 -7 -8 3 -13
2 -10 -2 6 -10 -76 -8 -93 2 -6 4 -11 1 -11 -6 0 -9 -3 -9 -10 2 -5 8 -10 10
-10 5 0 -6 -12 -10 -27 -9 -16 1 -34 3 -41 3 -7 1 -10 6 -7 11 3 6 2 10 -2 10
-13 0 -11 54 1 62 8 5 8 8 0 8 -13 0 -13 58 0 79 6 9 5 12 -2 7 -5 -3 -12 -1
-14 6 -5 15 -108 18 -108 3 0 -5 -4 -4 -9 3 -6 10 -11 9 -22 -4z"/>
</g>
</svg>
